<?xml version="1.0" standalone="no"?>
<!DOCTYPE svg PUBLIC "-//W3C//DTD SVG 20010904//EN"
 "http://www.w3.org/TR/2001/REC-SVG-20010904/DTD/svg10.dtd">
<svg version="1.0" xmlns="http://www.w3.org/2000/svg"
 width="516.000000pt" height="516.000000pt" viewBox="0 0 516.000000 516.000000"
 preserveAspectRatio="xMidYMid meet">
<metadata>
Created by potrace 1.14, written by Peter Selinger 2001-2017
</metadata>
<g transform="translate(0.000000,516.000000) scale(0.100000,-0.100000)"
fill="#000000" stroke="none">
<path d="M0 2580 l0 -2580 2580 0 2580 0 0 2580 0 2580 -2580 0 -2580 0 0
-2580z m4047 1228 c6 -5 29 -10 50 -11 21 -1 41 -6 45 -12 8 -11 12 -12 56
-14 18 -1 23 -4 14 -10 -22 -13 -38 -54 -36 -91 1 -19 -4 -46 -11 -60 -7 -14
-10 -31 -7 -39 2 -8 0 -11 -6 -7 -6 4 -13 -10 -17 -35 -4 -22 -9 -38 -12 -35
-11 10 -63 -85 -63 -113 0 -16 -7 -34 -15 -41 -13 -11 -12 -15 8 -34 20 -18
22 -24 12 -43 -10 -20 -13 -21 -26 -7 -14 13 -18 12 -37 -4 -25 -22 -31 -87
-9 -95 9 -4 9 -8 -2 -15 -7 -5 -10 -15 -7 -21 4 -6 2 -37 -5 -69 -7 -31 -12
-63 -10 -69 2 -16 -21 -17 -37 -1 -7 7 -12 9 -12 4 0 -4 7 -14 15 -22 20 -20
19 -38 -1 -30 -15 6 -15 4 -3 -10 12 -15 11 -16 -11 -9 -14 4 -28 13 -32 18
-5 8 -13 6 -25 -5 -10 -8 -24 -13 -30 -11 -16 6 -43 -21 -43 -42 0 -24 -20
-56 -30 -50 -5 3 -30 -15 -56 -39 -43 -41 -52 -45 -113 -51 -36 -3 -83 -13
-103 -22 -23 -10 -49 -13 -70 -9 -18 4 -83 11 -145 15 -91 7 -123 14 -172 37
-33 16 -62 36 -64 45 -3 10 -20 19 -46 23 -34 5 -52 17 -99 67 -31 34 -61 67
-65 75 -12 20 5 38 72 76 77 44 256 164 271 183 7 8 19 15 26 15 8 0 16 11 20
25 3 14 10 25 15 25 5 0 9 5 9 11 0 12 76 143 137 238 45 70 121 130 233 183
47 22 87 44 90 48 11 15 49 23 120 24 41 1 84 7 95 14 24 13 115 14 132 0z
m-2817 -189 c25 -6 57 -18 72 -25 14 -8 33 -14 42 -14 8 0 25 -13 37 -30 12
-16 36 -36 54 -44 17 -8 49 -29 71 -47 21 -17 62 -46 90 -65 28 -19 63 -51 78
-72 14 -21 52 -57 83 -81 32 -23 97 -71 145 -107 95 -70 127 -85 233 -103 86
-16 135 -30 135 -40 0 -10 -99 -85 -139 -106 -87 -45 -140 -57 -224 -51 -226
16 -260 26 -337 105 -70 71 -104 120 -165 232 -31 57 -63 109 -71 115 -8 6
-14 14 -14 18 0 4 -12 19 -26 34 -26 27 -94 126 -94 137 0 3 -11 18 -25 33
-14 15 -25 33 -25 40 0 7 -7 23 -15 36 -9 13 -12 31 -9 41 7 18 18 17 104 -6z
m-570 -840 c16 -30 32 -45 66 -60 25 -10 52 -19 60 -19 19 0 18 -36 -6 -150
-35 -166 -39 -216 -25 -300 13 -70 -31 21 -50 105 -4 17 -13 38 -22 47 -18 20
-9 38 19 38 20 0 21 1 3 20 -23 26 -49 27 -42 1 4 -16 -4 -21 -42 -32 -25 -6
-50 -16 -55 -20 -5 -5 -16 4 -23 19 -12 22 -12 34 -2 65 10 30 10 42 -1 62 -8
15 -10 39 -6 67 7 52 76 197 93 198 7 0 22 -18 33 -41z m714 -281 c8 -29 12
-55 8 -58 -15 -10 -42 -119 -46 -181 -2 -35 -9 -108 -16 -161 -11 -77 -11
-109 -1 -151 20 -92 32 -127 41 -127 5 0 30 26 55 58 73 89 156 173 169 169 6
-2 12 -17 13 -33 6 -69 27 -175 35 -180 5 -3 26 5 46 18 20 13 49 30 64 37 15
8 25 17 23 22 -3 4 2 14 10 22 8 9 15 23 15 31 0 16 19 23 21 9 13 -165 39
-336 59 -398 11 -33 28 -100 39 -150 11 -49 27 -110 36 -135 9 -25 18 -54 21
-65 5 -28 26 -65 35 -65 5 0 6 -6 4 -12 -6 -14 -59 -18 -71 -5 -15 14 -35 6
-44 -18 -11 -30 -26 -32 -33 -6 -3 12 4 29 15 41 20 21 20 21 -7 55 -26 36
-39 42 -49 26 -8 -12 -49 -1 -59 16 -15 25 -43 12 -100 -47 l-57 -60 -20 20
c-11 11 -23 20 -27 20 -11 1 -63 71 -63 85 0 7 -11 10 -29 7 -20 -3 -33 -13
-44 -38 -9 -19 -21 -34 -26 -34 -4 0 -11 -16 -14 -36 -13 -76 -45 -83 -105
-21 -44 45 -45 57 -5 57 21 0 23 3 17 23 -9 31 -11 32 -39 19 -14 -6 -24 -8
-24 -4 3 20 -3 32 -16 32 -9 0 -15 9 -14 23 0 12 3 16 6 9 8 -20 21 -4 16 21
-5 27 -45 57 -51 38 -2 -6 -8 -9 -13 -5 -5 3 -2 18 6 34 8 16 15 36 15 45 0
17 -36 34 -62 29 -10 -1 -18 1 -18 6 0 4 -3 15 -6 23 -3 9 3 16 17 20 16 4 20
11 16 27 -4 16 2 29 19 45 13 12 24 34 24 47 0 14 7 31 15 38 15 12 21 40 9
40 -3 0 -19 -9 -35 -21 -24 -17 -37 -19 -89 -13 -46 5 -60 10 -60 23 0 9 -9
27 -20 41 -27 34 -25 50 5 50 18 0 25 -5 25 -19 0 -37 18 -31 22 7 3 20 4 39
2 40 -9 11 -80 29 -88 22 -4 -4 -21 -4 -36 0 -16 5 -31 6 -34 2 -16 -15 -43
38 -48 94 -5 52 -3 63 17 86 12 14 33 29 46 33 34 11 49 25 49 47 0 11 11 44
25 74 19 40 34 58 60 71 33 16 36 15 54 -1 20 -18 21 -17 51 12 16 17 30 33
30 37 0 12 27 34 34 28 3 -4 6 1 6 10 0 9 9 22 20 29 11 7 20 16 20 20 0 7 35
50 67 82 12 12 25 34 28 49 11 40 22 33 39 -25z m1122 -243 c9 -13 33 -89 55
-167 47 -171 53 -280 19 -335 -11 -18 -27 -33 -37 -33 -9 0 -24 -6 -32 -14
-23 -21 -88 -33 -143 -26 -29 4 -50 2 -52 -5 -7 -14 1 111 9 155 8 41 123 407
137 433 12 23 25 21 44 -8z m1075 -15 c11 0 17 -5 14 -10 -3 -6 2 -13 12 -17
10 -4 20 -9 23 -12 3 -3 14 -11 25 -17 22 -12 55 -65 48 -77 -2 -4 3 -10 11
-13 11 -4 13 -14 9 -37 -5 -25 -3 -29 9 -24 12 4 14 1 11 -13 -5 -20 26 -62
39 -54 5 3 7 2 6 -3 -4 -13 65 -102 79 -103 11 0 50 61 85 133 10 20 26 37 34
37 9 0 44 -29 78 -64 33 -35 70 -66 82 -69 17 -3 20 1 21 30 1 19 4 37 8 41
12 12 45 -42 45 -74 0 -30 -29 -60 -75 -78 -18 -6 -17 -8 10 -26 17 -11 30
-24 29 -30 -3 -26 -5 -29 -18 -24 -8 3 -17 1 -21 -5 -3 -6 1 -11 9 -11 27 0
19 -39 -9 -46 -29 -7 -24 -24 8 -24 18 0 19 -2 7 -11 -11 -8 -12 -12 -2 -16 6
-2 12 -11 12 -19 0 -17 -55 -20 -65 -4 -13 21 -37 -12 -31 -42 3 -15 1 -30 -4
-33 -6 -3 -10 -15 -10 -26 0 -23 -8 -24 -49 -3 -32 16 -33 18 -26 61 6 42 5
44 -16 41 -14 -2 -31 -19 -47 -47 -20 -36 -23 -53 -19 -92 5 -39 3 -47 -9 -42
-7 3 -14 0 -14 -6 0 -6 -10 -11 -23 -11 -28 0 -55 -48 -59 -105 -2 -27 -8 -40
-18 -41 -8 -1 -23 -2 -32 -3 -10 0 -17 -6 -15 -13 4 -20 -46 -26 -67 -7 -15
14 -18 31 -17 77 1 54 -2 63 -31 93 -27 29 -33 31 -36 16 -3 -15 -10 -17 -44
-12 l-41 6 6 -35 c7 -43 -4 -52 -36 -31 -33 21 -42 7 -15 -23 16 -17 19 -26
11 -29 -7 -3 -13 -9 -13 -15 0 -14 -79 -90 -111 -107 -19 -9 -25 -19 -22 -32
4 -13 0 -19 -11 -19 -9 0 -16 5 -16 11 0 18 -23 4 -26 -16 -4 -26 -46 -58 -56
-42 -4 7 -6 -1 -5 -18 2 -27 -1 -30 -25 -27 -28 3 -33 -6 -29 -50 1 -11 -7
-20 -23 -24 -13 -3 -27 -12 -30 -20 -3 -8 -13 -14 -22 -14 -12 0 -15 -7 -12
-25 3 -14 1 -25 -3 -25 -5 0 -9 11 -9 25 0 14 -5 25 -11 25 -7 0 -8 -7 -4 -17
3 -10 -8 -3 -24 16 -17 19 -31 45 -31 59 0 32 -19 24 -41 -17 -21 -39 -67 -87
-56 -58 4 11 1 17 -8 17 -7 0 -26 26 -40 58 -15 31 -42 86 -60 123 -18 36 -35
90 -39 122 -4 31 -12 57 -17 57 -5 0 -9 7 -9 15 0 8 -5 15 -11 15 -6 0 -9 -7
-5 -15 5 -14 -22 -77 -36 -83 -4 -2 -1 -10 7 -19 16 -15 11 -38 -6 -28 -5 4
-14 -5 -21 -19 -6 -14 -16 -26 -21 -26 -5 0 -7 -11 -5 -25 3 -14 2 -25 -2 -25
-4 0 -12 -17 -18 -37 -22 -78 -46 -139 -64 -162 -10 -13 -18 -30 -18 -37 0
-20 -38 -17 -61 5 -14 13 -18 26 -14 43 8 32 -11 46 -50 37 -16 -3 -24 -7 -17
-8 16 -1 16 -21 -1 -21 -15 0 -40 38 -32 50 3 5 3 25 -1 45 -4 25 -11 35 -25
35 -11 0 -19 6 -19 14 0 8 -9 18 -20 21 -11 3 -20 15 -20 26 0 10 -5 19 -10
19 -6 0 -16 12 -22 28 -35 87 -43 97 -66 94 -17 -3 -25 2 -29 17 -8 30 -18 26
-50 -19 -15 -22 -31 -40 -35 -40 -28 -1 -22 137 7 170 9 10 13 39 13 81 -1 36
3 72 8 80 5 8 9 42 10 76 1 66 19 98 49 86 10 -3 38 -25 63 -49 52 -50 87 -61
137 -43 28 10 42 10 68 1 48 -17 85 -15 137 9 25 12 63 21 85 21 40 0 75 23
75 50 0 7 12 20 27 28 21 12 29 29 43 87 9 40 14 77 10 83 -7 12 12 95 28 127
6 10 13 36 16 58 4 22 11 44 16 49 6 6 10 20 10 32 0 37 21 40 47 8 12 -16 23
-33 23 -37 0 -5 8 -21 19 -35 10 -15 32 -52 48 -82 17 -30 39 -71 50 -90 11
-19 25 -53 32 -75 14 -45 21 -63 46 -120 9 -22 21 -71 26 -110 11 -94 40 -205
53 -205 6 0 16 12 22 28 6 15 24 59 39 97 16 39 43 102 61 140 18 39 58 142
89 230 31 88 60 169 65 180 5 11 18 40 28 65 50 116 65 144 69 133 3 -7 14
-13 24 -13z m639 -204 c0 -2 -7 -9 -15 -16 -12 -10 -15 -10 -15 4 0 9 7 16 15
16 8 0 15 -2 15 -4z m-2006 -172 c9 -24 7 -132 -3 -138 -4 -3 -16 3 -26 14
-16 18 -17 25 -5 80 13 60 23 73 34 44z m-278 -759 c16 -33 4 -41 -13 -9 -15
30 -16 34 -5 34 4 0 12 -11 18 -25z m439 -235 c3 -5 -1 -10 -10 -10 -9 0 -13
5 -10 10 3 6 8 10 10 10 2 0 7 -4 10 -10z"/>
<path d="M1270 2312 c0 -13 4 -20 10 -17 6 3 10 1 10 -4 0 -6 4 -11 10 -11 5
0 7 7 4 15 -4 9 0 15 10 15 9 0 16 7 16 15 0 11 -9 15 -30 13 -24 -2 -30 -7
-30 -26z"/>
<path d="M920 2046 c0 -13 -7 -30 -16 -37 -22 -18 -37 -60 -25 -72 14 -14 50
10 57 38 3 13 15 27 25 30 22 7 24 18 9 46 -16 28 -50 25 -50 -5z"/>
<path d="M1517 1313 c-11 -10 -8 -25 3 -18 5 3 19 1 31 -5 26 -14 36 -6 19 15
-13 15 -42 20 -53 8z"/>
<path d="M2853 1494 c-18 -9 -31 -20 -28 -24 6 -11 53 11 60 28 5 15 7 15 -32
-4z"/>
<path d="M3441 1414 c0 -11 3 -14 6 -6 3 7 2 16 -1 19 -3 4 -6 -2 -5 -13z"/>
<path d="M2225 1390 c3 -5 8 -10 11 -10 2 0 4 5 4 10 0 6 -5 10 -11 10 -5 0
-7 -4 -4 -10z"/>
<path d="M2230 1320 c-8 -5 -4 -9 11 -13 13 -4 27 -3 32 2 11 11 -27 21 -43
11z"/>
<path d="M3760 1284 c0 -8 5 -12 10 -9 6 4 8 11 5 16 -9 14 -15 11 -15 -7z"/>
</g>
</svg>
